HIERARCHY
ROOT Hips
{
	OFFSET 0.00000 0.00000 0.00000
	CHANNELS 6 Xposition Yposition Zposition Zrotation Yrotation Xrotation 
	JOINT LHipJoint
	{
		OFFSET 0 0 0
		CHANNELS 3 Zrotation Yrotation Xrotation
		JOINT LeftHip
		{
			OFFSET 1.58895 -1.83665 0.71753
			CHANNELS 3 Zrotation Yrotation Xrotation
			JOINT LeftKnee
			{
				OFFSET 2.50528 -6.88321 0.00000
				CHANNELS 3 Zrotation Yrotation Xrotation
				JOINT LeftAnkle
				{
					OFFSET 2.63244 -7.23257 0.00000
					CHANNELS 3 Zrotation Yrotation Xrotation
					JOINT LeftToe
					{
						OFFSET 0.23691 -0.65090 1.72750
						CHANNELS 3 Zrotation Yrotation Xrotation
						End Site
						{
							OFFSET 0.00000 -0.00000 0.92561
						}
					}
				}
			}
		}
	}
	JOINT RHipJoint
	{
		OFFSET 0 0 0
		CHANNELS 3 Zrotation Yrotation Xrotation
		JOINT RightHip
		{
			OFFSET -1.51435 -1.83665 0.71753
			CHANNELS 3 Zrotation Yrotation Xrotation
			JOINT RightKnee
			{
				OFFSET -2.54551 -6.99375 0.00000
				CHANNELS 3 Zrotation Yrotation Xrotation
				JOINT RightAnkle
				{
					OFFSET -2.66027 -7.30903 0.00000
					CHANNELS 3 Zrotation Yrotation Xrotation
					JOINT RightToe
					{
						OFFSET -0.22981 -0.63138 2.03959
						CHANNELS 3 Zrotation Yrotation Xrotation
						End Site
						{
							OFFSET -0.00000 -0.00000 1.07060
						}
					}
				}
			}
		}
	}
	JOINT lowerback
	{
		OFFSET 0 0 0
		CHANNELS 3 Zrotation Yrotation Xrotation
		JOINT Chest
		{
			OFFSET -0.02651 1.86275 -0.11152
			CHANNELS 3 Zrotation Yrotation Xrotation
			JOINT Chest2
			{
				OFFSET 0.01019 1.86224 0.04087
				CHANNELS 3 Zrotation Yrotation Xrotation
				JOINT lowerneck
				{
					OFFSET 0 0 0
					CHANNELS 3 Zrotation Yrotation Xrotation
					JOINT Neck
					{
						OFFSET -0.01926 1.80512 0.08867
						CHANNELS 3 Zrotation Yrotation Xrotation
						JOINT Head
						{
							OFFSET 0.05516 1.76451 -0.38475
							CHANNELS 3 Zrotation Yrotation Xrotation
							End Site
							{
								OFFSET 0.01592 1.82587 -0.14001
							}
						}
					}
				}
				JOINT LeftCollar
				{
					OFFSET 0 0 0
					CHANNELS 3 Zrotation Yrotation Xrotation
					JOINT LeftShoulder
					{
						OFFSET 3.47116 1.51376 0.14491
CHANNELS 3 Zrotation Xrotation Yrotation
						JOINT LeftElbow
						{
OFFSET 0 -4.780950 0.000000
CHANNELS 3 Zrotation Xrotation Yrotation
							JOINT LeftWrist
							{
OFFSET 0 -3.586150 -0.000000
CHANNELS 3 Zrotation Xrotation Yrotation
								JOINT lhand
								{
									OFFSET 0 0 0
CHANNELS 3 Zrotation Xrotation Yrotation
									JOINT LFingers
									{
OFFSET 0 -0.659810 0.000000
CHANNELS 3 Zrotation Xrotation Yrotation
										End Site
										{
OFFSET 0 -0.531960 0.000000
										}
									}
								}
								JOINT LThumb
								{
OFFSET 0 0.000000 0.000000
CHANNELS 3 Zrotation Xrotation Yrotation
									End Site
									{
OFFSET 0 -0.540080 0.540080
									}
								}
							}
						}
					}
				}
				JOINT RightCollar
				{
					OFFSET 0 0 0
					CHANNELS 3 Zrotation Yrotation Xrotation
					JOINT RightShoulder
					{
						OFFSET -3.31725 1.61216 0.35156
CHANNELS 3 Zrotation Xrotation Yrotation
						JOINT RightElbow
						{
OFFSET 0 -4.489130 0.000000
CHANNELS 3 Zrotation Xrotation Yrotation
							JOINT RightWrist
							{
OFFSET 0 -3.705100 0.000000
CHANNELS 3 Zrotation Xrotation Yrotation
								JOINT rhand
								{
									OFFSET 0 0 0
CHANNELS 3 Zrotation Xrotation Yrotation
									JOINT RFingers
									{
OFFSET 0 -0.449140 0.000000
CHANNELS 3 Zrotation Xrotation Yrotation
										End Site
										{
OFFSET 0 -0.362110 0.000000
										}
									}
								}
								JOINT RThumb
								{
OFFSET 0 0.000000 0.000000
CHANNELS 3 Zrotation Xrotation Yrotation
									End Site
									{
OFFSET 0 -0.367630 0.367630
									}
								}
							}
						}
					}
				}
			}
		}
	}
}
MOTION
Frames: 12
Frame Time: 0.008333333333333333
-0.848615 17.829600 6.792242 -5.056037 9.085476 -11.416324 0.000000 0.000000 0.000000 -8.878369 -7.066859 0.995302 4.495886 12.792257 38.596126 1.928012 -9.152377 -24.909161 9.545527 -17.146225 -57.958190 0.000000 0.000000 0.000000 17.826964 -10.742534 10.668756 -1.746069 -8.315706 23.677164 -2.267869 3.659240 -27.600583 -1.646480 8.087259 -22.979559 -0.385893 0.568262 7.263113 0.575510 0.761540 -3.127027 0.718088 0.407416 -7.374785 -6.507478 -4.173730 -18.925018 0.323724 -4.218211 -18.684851 1.061618 -1.594744 -2.912651 0.000000 0.000000 0.000000 -16.389032 -61.856957 -91.928052 158.065315 -32.903074 113.449610 24.156690 -69.644166 20.728039 0.000000 0.000000 0.000000 -7.125000 0.000000 0.000000 -2.796416 7.475214 -2.411263 0.000000 0.000000 0.000000 -57.993061 -56.262021 -11.774234 -104.601420 -59.174986 -72.609823 -46.464656 39.982458 22.831859 0.000000 0.000000 0.000000 7.125000 0.000000 0.000000 -21.318774 60.136562 8.106612
-0.859538 17.865766 6.805255 -5.155632 9.330838 -11.513512 0.000000 0.000000 0.000000 -8.733986 -7.035678 1.346056 4.366600 12.632804 38.009179 1.885628 -9.078186 -24.628595 9.612973 -17.186410 -58.186775 0.000000 0.000000 0.000000 17.846237 -11.063743 10.909490 -1.688458 -8.184583 23.276163 -2.167100 3.396119 -27.005803 -1.668317 8.138000 -23.133997 -0.329220 0.567229 7.204997 0.356902 0.751940 -3.414863 0.457058 0.395159 -7.644777 -6.157234 -4.102977 -19.415783 -0.395971 -4.195249 -18.181446 0.748705 -1.608716 -2.681859 0.000000 0.000000 0.000000 -16.159758 -61.081567 -92.088893 158.213474 -32.734956 113.530006 24.634463 -68.871935 21.074295 0.000000 0.000000 0.000000 -7.125000 0.000000 0.000000 -2.528585 7.024420 -2.202520 0.000000 0.000000 0.000000 -55.969819 -56.034376 -10.781042 -106.936943 -58.886761 -74.612874 -48.048624 43.372379 23.807093 0.000000 0.000000 0.000000 7.125000 0.000000 0.000000 -23.959892 61.804875 10.119932
-0.868190 17.886485 6.809028 -5.184939 9.538202 -11.559651 0.000000 0.000000 0.000000 -8.725578 -7.125225 1.616131 4.265454 12.505479 37.544519 1.863669 -8.974595 -24.480847 9.633987 -17.198874 -58.258030 0.000000 0.000000 0.000000 17.797081 -11.262612 11.015211 -1.654699 -8.106330 23.037592 -2.098947 3.375667 -26.564220 -1.625036 8.036902 -22.826176 -0.458040 0.671709 6.732274 0.264308 0.873576 -3.402210 0.420973 0.458438 -7.358906 -6.132918 -4.059470 -19.775170 -1.136638 -4.170771 -18.158822 0.495086 -1.588361 -2.642347 0.000000 0.000000 0.000000 -16.920056 -60.798932 -92.851964 158.334009 -32.597459 113.595017 24.480400 -67.720843 21.482651 0.000000 0.000000 0.000000 -7.125000 0.000000 0.000000 -2.669572 6.615627 -2.346903 0.000000 0.000000 0.000000 -55.069584 -55.942917 -10.622589 -108.733750 -58.630598 -76.149199 -49.238623 45.828140 24.274540 0.000000 0.000000 0.000000 7.125000 0.000000 0.000000 -26.012892 62.744253 11.622719
-0.877084 17.901726 6.805759 -5.095903 9.757416 -11.558985 0.000000 0.000000 0.000000 -8.924220 -7.392308 1.825138 4.205470 12.428849 37.266488 1.865822 -8.878875 -24.494170 9.591453 -17.173596 -58.113912 0.000000 0.000000 0.000000 17.651094 -11.390352 10.991597 -1.647726 -8.090167 22.988337 -2.075624 3.450986 -26.395312 -1.573228 7.913934 -22.453005 -0.550492 0.783266 6.522893 0.040634 0.999681 -3.456193 0.224421 0.518855 -7.294100 -6.233303 -4.043861 -20.046966 -1.538076 -4.134037 -18.104131 0.375928 -1.558554 -2.593980 0.000000 0.000000 0.000000 -17.459632 -60.682673 -93.270633 158.449143 -32.465697 113.656975 24.447384 -67.206050 21.693734 0.000000 0.000000 0.000000 -7.125000 0.000000 0.000000 -2.713140 6.396511 -2.396688 0.000000 0.000000 0.000000 -54.205073 -55.756413 -10.447970 -110.033466 -58.427195 -77.257764 -50.160843 47.547961 24.266290 0.000000 0.000000 0.000000 7.125000 0.000000 0.000000 -27.508612 63.026670 12.526734
-0.886589 17.900098 6.791404 -5.011693 9.971004 -11.576494 0.000000 0.000000 0.000000 -9.121153 -7.730402 1.900516 4.202071 12.424569 37.250995 1.887623 -8.925188 -24.639714 9.521868 -17.132035 -57.878025 0.000000 0.000000 0.000000 17.514411 -11.575724 10.878742 -1.659284 -8.117094 23.070370 -2.080957 3.545382 -26.412427 -1.569351 7.904649 -22.424981 -0.651212 0.935028 6.442545 -0.161733 1.179977 -3.423982 0.047617 0.606593 -7.212611 -6.514316 -4.024139 -20.092069 -1.759736 -4.070784 -18.329383 0.353031 -1.495069 -2.672797 0.000000 0.000000 0.000000 -18.065857 -60.732884 -93.708208 158.528354 -32.374687 113.699426 24.448628 -67.086136 21.849562 0.000000 0.000000 0.000000 -7.125000 0.000000 0.000000 -2.729199 6.230360 -2.419697 0.000000 0.000000 0.000000 -53.983061 -55.534126 -10.779485 -110.781249 -58.303425 -77.894523 -50.830686 48.797888 24.195845 0.000000 0.000000 0.000000 7.125000 0.000000 0.000000 -28.580504 63.155194 13.140277
-0.895676 17.882653 6.762583 -4.969899 10.210948 -11.609117 0.000000 0.000000 0.000000 -9.241212 -8.075891 1.729087 4.266098 12.506343 37.547467 1.918716 -8.952384 -24.846042 9.513179 -17.126787 -57.848328 0.000000 0.000000 0.000000 17.444856 -11.838776 10.693028 -1.677052 -8.158189 23.195462 -2.126160 3.673547 -26.685248 -1.554856 7.869734 -22.319107 -0.649756 1.088107 6.605937 -0.382799 1.368813 -3.338537 -0.210869 0.692881 -7.212040 -6.710063 -4.070102 -20.259844 -1.946175 -4.090665 -18.529614 0.321782 -1.478293 -2.723750 0.000000 0.000000 0.000000 -18.517955 -60.876093 -94.021601 158.610278 -32.280356 113.743281 24.524431 -66.764800 21.883996 0.000000 0.000000 0.000000 -7.125000 0.000000 0.000000 -2.685369 6.180153 -2.383347 0.000000 0.000000 0.000000 -54.090628 -55.313570 -11.387232 -111.016326 -58.263464 -78.094581 -51.602947 49.759909 23.883521 0.000000 0.000000 0.000000 7.125000 0.000000 0.000000 -29.695620 63.023926 13.608051
-0.905504 17.847059 6.717983 -4.951947 10.520510 -11.547914 0.000000 0.000000 0.000000 -9.315149 -8.556734 1.160842 4.417657 12.695942 38.241328 1.955740 -8.871038 -25.088527 9.575579 -17.164194 -58.060335 0.000000 0.000000 0.000000 17.491494 -12.059339 10.324678 -1.704056 -8.220223 23.384991 -2.244040 3.881403 -27.406120 -1.503318 7.744150 -21.939673 -0.578650 1.200636 6.980121 -0.600766 1.508399 -3.248292 -0.504525 0.751406 -7.324933 -6.710422 -4.070904 -20.478370 -2.178823 -4.085437 -18.676302 0.242448 -1.463006 -2.752397 0.000000 0.000000 0.000000 -18.565230 -61.114641 -94.043369 158.677351 -32.203031 113.778996 24.579296 -66.071794 21.814689 0.000000 0.000000 0.000000 -7.125000 0.000000 0.000000 -2.643208 6.244285 -2.342702 0.000000 0.000000 0.000000 -54.445071 -55.234189 -12.141005 -110.467330 -58.355790 -77.627318 -52.329268 51.651288 24.361404 0.000000 0.000000 0.000000 7.125000 0.000000 0.000000 -31.272432 63.838339 15.001511
-0.915340 17.805987 6.664435 -5.050927 10.846428 -11.359472 0.000000 0.000000 0.000000 -9.253462 -9.174380 0.303490 4.616845 12.938128 39.138482 1.996225 -8.874857 -25.352630 9.603865 -17.180987 -58.155959 0.000000 0.000000 0.000000 17.736700 -12.153315 9.719056 -1.755720 -8.337359 23.743611 -2.409663 4.087732 -28.405711 -1.562986 7.888836 -22.377260 -0.497384 1.332222 7.190633 -0.655085 1.687924 -3.069293 -0.633186 0.833934 -7.251066 -6.777340 -4.101134 -20.492386 -2.485082 -4.142637 -19.082802 0.152223 -1.461977 -2.906312 0.000000 0.000000 0.000000 -18.667888 -61.531050 -94.006756 158.689236 -32.189302 113.785349 24.188409 -65.581476 22.110338 0.000000 0.000000 0.000000 -7.125000 0.000000 0.000000 -2.920866 5.999494 -2.603523 0.000000 0.000000 0.000000 -55.562689 -55.246199 -13.394765 -109.280269 -58.546356 -76.615562 -52.861275 53.253734 24.784263 0.000000 0.000000 0.000000 7.125000 0.000000 0.000000 -32.533261 64.520256 16.179547
-0.923559 17.764691 6.605288 -5.170477 11.181794 -10.981930 0.000000 0.000000 0.000000 -9.151527 -9.883844 -0.771792 4.826510 13.185261 40.066810 2.041588 -8.969377 -25.645926 9.574112 -17.163270 -58.055128 0.000000 0.000000 0.000000 18.047516 -12.026415 8.793460 -1.849413 -8.544784 24.381684 -2.554866 4.374396 -29.239816 -1.563654 7.890881 -22.383122 -0.263849 1.414668 7.425944 -0.792233 1.811384 -2.968665 -0.929184 0.879661 -7.267313 -6.729947 -4.059658 -20.412896 -2.603279 -4.123187 -19.550381 0.109840 -1.429009 -3.094587 0.000000 0.000000 0.000000 -18.207471 -61.914219 -93.519439 158.690769 -32.187550 113.786144 23.779277 -65.474031 22.472972 0.000000 0.000000 0.000000 -7.125000 0.000000 0.000000 -3.216465 5.687626 -2.886612 0.000000 0.000000 0.000000 -56.276459 -55.262125 -14.286037 -107.808354 -58.766141 -75.358469 -53.254415 53.865702 24.535293 0.000000 0.000000 0.000000 7.125000 0.000000 0.000000 -33.065726 64.348399 16.339694
-0.931075 17.742528 6.545605 -5.330753 11.458344 -10.394035 0.000000 0.000000 0.000000 -8.931686 -10.577334 -1.980847 4.996977 13.380386 40.809678 2.078822 -9.131938 -25.884496 9.520453 -17.131194 -57.873119 0.000000 0.000000 0.000000 18.389809 -11.757826 7.442395 -1.987693 -8.840174 25.296727 -2.608648 4.592068 -29.524157 -1.522843 7.792001 -22.084236 -0.077982 1.496062 7.368938 -0.856092 1.936062 -2.835743 -1.112273 0.931883 -7.082747 -6.982425 -4.176287 -20.283761 -2.121871 -4.202529 -20.104898 0.315220 -1.428233 -3.302763 0.000000 0.000000 0.000000 -17.859851 -62.100649 -93.279499 158.705361 -32.170720 113.793937 23.465848 -65.159215 22.697019 0.000000 0.000000 0.000000 -7.125000 0.000000 0.000000 -3.436361 5.506249 -3.096505 0.000000 0.000000 0.000000 -56.778714 -55.336175 -14.834183 -106.041786 -59.003840 -73.846072 -53.650088 54.222658 23.993863 0.000000 0.000000 0.000000 7.125000 0.000000 0.000000 -33.370640 63.823912 16.102700
-0.936386 17.741994 6.491431 -5.429460 11.668406 -9.770792 0.000000 0.000000 0.000000 -8.731925 -11.057702 -3.030920 5.076517 13.469403 41.152067 2.085549 -9.126946 -25.927148 9.516241 -17.128699 -57.858836 0.000000 0.000000 0.000000 18.553124 -11.687136 5.977516 -2.126511 -9.124157 26.184861 -2.572059 4.605246 -29.304392 -1.607837 7.995913 -22.701932 -0.030984 1.613457 7.136048 -0.898627 2.097225 -2.619454 -1.191036 1.010960 -6.713036 -6.940232 -4.130485 -20.187966 -1.941717 -4.145299 -20.551064 0.375531 -1.381913 -3.481488 0.000000 0.000000 0.000000 -17.626205 -61.964247 -93.219205 158.761550 -32.105592 113.823854 23.125704 -64.867083 22.884870 0.000000 0.000000 0.000000 -7.125000 0.000000 0.000000 -3.668477 5.368211 -3.316169 0.000000 0.000000 0.000000 -56.951427 -55.455636 -15.016405 -103.645887 -59.280654 -71.788842 -54.448027 55.520459 23.856837 0.000000 0.000000 0.000000 7.125000 0.000000 0.000000 -34.733472 63.919351 16.918138
-0.941910 17.758132 6.439218 -5.284674 11.936801 -9.298993 0.000000 0.000000 0.000000 -8.813186 -11.355004 -3.688778 5.065690 13.457410 41.105753 2.049641 -9.232288 -25.698297 9.469573 -17.100560 -57.700370 0.000000 0.000000 0.000000 18.381028 -11.823569 4.906893 -2.213008 -9.296208 26.726347 -2.521102 4.658104 -28.990306 -1.651082 8.097973 -23.012040 -0.303105 1.772939 7.098572 -0.964901 2.281266 -2.350087 -1.122919 1.113491 -6.411150 -6.701814 -3.883337 -20.209046 -2.364724 -3.899601 -20.578871 0.201337 -1.265354 -3.506918 0.000000 0.000000 0.000000 -17.728996 -61.633316 -93.296777 158.832013 -32.023863 113.861282 23.017054 -64.723968 22.949343 0.000000 0.000000 0.000000 -7.125000 0.000000 0.000000 -3.742930 5.319426 -3.387246 0.000000 0.000000 0.000000 -56.337921 -55.381049 -14.503929 -100.916387 -59.540074 -69.438935 -55.476307 57.202742 23.736228 0.000000 0.000000 0.000000 7.125000 0.000000 0.000000 -36.573923 64.111480 18.094261
